<?xml version="1.0" standalone="no"?>
<!DOCTYPE svg PUBLIC "-//W3C//DTD SVG 20010904//EN"
 "http://www.w3.org/TR/2001/REC-SVG-20010904/DTD/svg10.dtd">
<svg version="1.0" xmlns="http://www.w3.org/2000/svg"
 width="2481.000000pt" height="2481.000000pt" viewBox="0 0 2481.000000 2481.000000"
 preserveAspectRatio="xMidYMid meet">

<g transform="translate(0.000000,2481.000000) scale(0.100000,-0.100000)"
fill="#000000" stroke="none">
<path d="M0 12410 l0 -12400 12400 0 12400 0 0 12400 0 12400 -12400 0 -12400
0 0 -12400z m14390 1811 c-1 -11 -98 -81 -112 -81 -7 0 -35 20 -62 43 l-48 43
57 114 58 115 53 -114 c30 -63 54 -117 54 -120z m-268 -56 c-6 -101 -7 -103
-66 -110 -87 -11 -87 -11 -128 105 -20 58 -37 110 -37 116 -1 6 51 -7 117 -30
l117 -41 -3 -40z m515 5 l-42 -120 -35 0 c-19 0 -52 3 -72 6 -36 6 -37 7 -43
63 -4 31 -7 63 -8 70 -1 10 35 28 118 57 66 24 121 43 122 43 1 1 -17 -53 -40
-119z m-638 -225 l42 -56 -42 -52 c-24 -29 -44 -53 -44 -55 -4 -6 -225 103
-223 110 3 9 198 106 214 107 7 1 30 -24 53 -54z m732 2 l114 -54 -62 -31
c-34 -18 -87 -43 -118 -56 l-55 -25 -45 55 -44 55 42 54 c23 30 45 55 48 55 4
0 58 -24 120 -53z m-644 -223 c23 -4 30 -26 35 -108 l3 -39 -114 -38 c-63 -21
-116 -37 -119 -35 -3 4 12 50 73 224 5 13 50 11 122 -4z m511 -1 c18 -35 75
-213 70 -218 -4 -4 -96 25 -204 64 l-30 12 8 67 c5 37 12 69 14 72 4 4 37 9
121 19 7 0 16 -7 21 -16z m-255 -119 l58 -47 -6 -131 c-7 -141 -104 -2999
-106 -3119 l-2 -72 -8 50 c-5 28 -31 743 -59 1590 -27 847 -52 1572 -55 1611
l-6 71 58 46 c32 25 60 46 63 46 3 1 31 -20 63 -45z m-6368 -758 c183 -50 278
-149 305 -318 28 -180 -54 -349 -204 -423 -91 -45 -151 -56 -333 -62 l-173 -6
0 -238 0 -239 -90 0 -90 0 0 648 c0 357 3 652 8 656 4 5 122 6 262 3 191 -4
270 -9 315 -21z m975 -108 c29 -73 144 -364 256 -646 112 -283 204 -518 204
-523 0 -15 -157 -11 -172 5 -8 7 -40 84 -72 170 l-58 156 -307 0 -306 0 -59
-157 c-32 -87 -63 -164 -68 -170 -10 -12 -178 -20 -178 -9 0 3 88 227 196 498
108 271 220 555 250 631 76 196 59 177 168 177 l94 0 52 -132z m828 -455 l2
-583 280 0 280 0 0 -70 0 -70 -370 0 -370 0 0 655 0 656 88 -3 87 -3 3 -582z
m900 0 l2 -583 280 0 280 0 0 -70 0 -70 -370 0 -370 0 0 655 0 656 88 -3 87
-3 3 -582z m1432 480 c24 -60 135 -340 247 -623 112 -283 210 -530 218 -547
l15 -33 -84 0 c-58 0 -89 4 -98 14 -8 7 -40 84 -72 170 l-58 156 -307 0 -306
0 -59 -157 c-32 -87 -63 -164 -68 -170 -10 -12 -178 -20 -178 -9 0 7 501 1269
511 1289 8 14 24 17 103 17 l94 0 42 -107z m1368 78 c153 -45 267 -123 346
-238 134 -196 152 -488 44 -708 -58 -121 -160 -219 -286 -277 -115 -52 -159
-58 -489 -58 l-303 0 0 648 c0 357 3 652 8 656 4 5 142 6 307 3 269 -4 308 -7
373 -26z m1362 -378 c0 -237 5 -435 11 -473 12 -77 59 -169 108 -212 65 -57
134 -81 231 -81 128 1 215 42 281 131 64 87 63 83 69 582 l5 455 88 3 87 3 0
-438 c0 -475 -3 -507 -57 -621 -35 -76 -140 -180 -216 -216 -179 -84 -405 -70
-566 34 -66 42 -133 121 -164 190 -49 110 -50 120 -54 584 -3 241 -2 444 1
452 4 10 27 14 91 14 l85 0 0 -407z m1395 401 c14 -3 86 -125 242 -407 197
-358 244 -446 280 -536 9 -23 11 -20 32 36 36 95 476 896 497 904 11 4 54 8
97 8 l77 1 0 -655 0 -655 -76 0 -75 0 3 544 c3 472 1 541 -11 518 -126 -244
-467 -861 -483 -874 -11 -10 -35 -18 -53 -18 -18 0 -42 8 -53 18 -11 9 -127
213 -257 452 -131 239 -240 438 -244 443 -4 4 -4 -19 0 -50 4 -32 8 -277 8
-545 l1 -488 -80 0 -80 0 0 648 c0 357 3 652 7 655 8 8 139 9 168 1z m-5910
-1938 c94 -40 101 -193 11 -251 -28 -19 -86 -24 -128 -12 l-28 7 0 -65 c0 -58
-2 -65 -20 -65 -19 0 -20 7 -20 195 0 188 1 195 20 195 11 0 20 -6 20 -14 0
-11 8 -10 37 5 45 23 63 24 108 5z m324 3 c17 -6 36 -19 41 -29 6 -10 10 -68
10 -129 0 -93 -2 -111 -15 -111 -9 0 -18 7 -21 15 -5 13 -8 13 -27 0 -12 -8
-40 -15 -63 -15 -34 0 -47 5 -63 26 -29 37 -27 79 5 111 23 23 31 25 85 21 59
-4 59 -4 59 23 0 52 -50 74 -114 49 -22 -8 -26 -7 -26 9 0 34 71 50 129 30z
m731 -2 c41 -14 49 -44 10 -39 -89 11 -111 7 -136 -21 -26 -31 -33 -92 -13
-129 21 -39 125 -59 145 -27 10 16 34 9 34 -10 0 -17 -22 -31 -75 -45 -35 -9
-97 11 -128 43 -43 42 -49 120 -15 171 26 39 80 70 118 69 14 0 41 -5 60 -12z
m726 -12 c76 -49 84 -168 16 -228 -47 -42 -140 -40 -195 4 -54 42 -59 141 -11
199 43 50 133 62 190 25z m398 -14 c29 -29 31 -37 31 -101 0 -62 -3 -71 -30
-100 -31 -32 -93 -55 -125 -46 -11 4 -29 9 -40 12 -19 5 -20 1 -20 -60 0 -59
-2 -66 -20 -66 -19 0 -20 7 -20 195 0 188 1 195 20 195 11 0 20 -6 20 -14 0
-11 8 -10 38 6 51 27 106 19 146 -21z m980 10 c18 -19 21 -36 24 -136 4 -111
3 -115 -17 -115 -15 0 -21 6 -21 21 l0 20 -26 -20 c-35 -28 -97 -28 -124 -1
-31 31 -27 93 8 120 22 18 37 21 85 18 52 -4 57 -3 57 17 0 54 -51 79 -114 55
-14 -5 -26 -8 -26 -6 0 3 -3 11 -6 20 -15 38 123 44 160 7z m1746 13 c53 -21
80 -66 80 -132 0 -43 -5 -57 -31 -87 -77 -87 -219 -58 -248 52 -19 69 11 136
72 164 52 23 75 24 127 3z m1147 -19 c21 -24 23 -36 23 -136 0 -91 -2 -109
-15 -109 -9 0 -18 7 -21 15 -5 13 -8 13 -27 0 -12 -8 -40 -15 -63 -15 -34 0
-47 5 -63 26 -29 37 -27 79 5 111 23 23 31 25 85 21 57 -4 59 -4 59 21 0 51
-52 75 -113 52 -21 -8 -26 -6 -30 10 -12 45 122 49 160 4z m-6327 5 c0 -18 -7
-20 -55 -20 l-55 0 0 -115 c0 -108 -1 -115 -20 -115 -19 0 -20 7 -20 115 l0
115 -50 0 c-43 0 -50 3 -50 20 0 19 7 20 125 20 118 0 125 -1 125 -20z m820
-35 l0 -55 80 0 80 0 0 55 c0 48 2 55 20 55 19 0 20 -7 20 -135 0 -128 -1
-135 -20 -135 -18 0 -20 7 -20 60 l0 60 -80 0 -80 0 0 -61 c0 -57 -1 -60 -22
-57 -22 3 -23 7 -26 136 l-3 132 26 0 c24 0 25 -3 25 -55z m900 -80 c0 -128
-1 -135 -20 -135 -19 0 -20 7 -20 115 l0 115 -80 0 -80 0 0 -115 c0 -108 -1
-115 -20 -115 -19 0 -20 7 -20 135 l0 135 120 0 120 0 0 -135z m1080 115 c0
-17 -7 -20 -50 -20 l-50 0 0 -115 c0 -108 -1 -115 -20 -115 -19 0 -20 7 -20
115 l0 115 -50 0 c-43 0 -50 3 -50 20 0 19 7 20 120 20 113 0 120 -1 120 -20z
m140 -35 l0 -55 80 0 80 0 0 55 c0 48 2 55 20 55 19 0 20 -7 20 -135 0 -127
-1 -135 -20 -135 -16 0 -19 8 -22 58 l-3 57 -77 3 -77 3 -3 -58 c-3 -50 -6
-58 -23 -58 -19 0 -20 8 -23 133 l-3 132 26 0 c24 0 25 -3 25 -55z m840 -80
c0 -128 -1 -135 -20 -135 -17 0 -20 7 -20 45 0 44 -1 45 -32 45 -28 0 -38 -8
-63 -45 -21 -31 -37 -45 -52 -45 -13 0 -23 3 -23 6 0 3 16 26 36 52 33 43 34
47 15 54 -44 16 -56 91 -18 125 30 28 42 31 115 32 l62 1 0 -135z m930 0 c0
-128 -1 -135 -20 -135 -19 0 -20 7 -20 135 0 128 1 135 20 135 19 0 20 -7 20
-135z m137 76 c-32 -33 -57 -63 -57 -66 0 -4 27 -38 61 -76 60 -68 61 -69 33
-69 -23 0 -41 14 -86 64 -32 36 -58 69 -58 74 0 6 23 37 52 71 42 50 57 61 81
61 l30 0 -56 -59z m617 -6 c27 -36 52 -65 56 -65 5 0 29 29 55 65 30 42 53 65
66 65 18 0 19 -8 19 -135 0 -128 -1 -135 -20 -135 -18 0 -20 8 -22 102 l-3
103 -45 -62 c-25 -34 -48 -61 -52 -60 -4 1 -27 28 -52 60 l-45 58 -3 -98 c-3
-93 -4 -98 -25 -101 -23 -3 -23 -3 -23 132 0 134 0 136 23 136 15 0 36 -20 71
-65z m566 -70 c0 -128 -1 -135 -20 -135 -19 0 -20 7 -20 115 l0 115 -80 0 -80
0 0 -115 c0 -108 -1 -115 -20 -115 -19 0 -20 7 -20 135 l0 135 120 0 120 0 0
-135z m490 80 l0 -55 80 0 80 0 0 55 c0 48 2 55 20 55 19 0 20 -7 20 -135 0
-128 -1 -135 -20 -135 -18 0 -20 7 -20 60 l0 60 -80 0 -79 0 -3 -57 c-3 -50
-6 -58 -23 -58 -19 0 -20 8 -23 133 l-3 132 26 0 c24 0 25 -3 25 -55z m372
-47 l3 -103 79 103 c61 78 84 102 102 102 l24 0 0 -135 c0 -128 -1 -135 -20
-135 -18 0 -20 8 -22 106 l-3 106 -80 -103 c-52 -68 -88 -105 -103 -107 -22
-3 -22 -2 -22 132 0 129 1 136 20 136 18 0 20 -8 22 -102z m536 -30 c-3 -125
-4 -133 -23 -133 -16 0 -21 8 -23 43 -3 39 -5 42 -32 42 -23 0 -35 -9 -60 -45
-23 -33 -38 -45 -56 -45 -28 0 -27 4 18 61 l29 36 -32 32 c-26 27 -30 37 -25
63 12 61 40 76 139 77 l68 1 -3 -132z"/>
<path d="M7570 12455 l0 -275 148 0 c101 0 164 5 198 15 119 35 187 128 188
259 1 95 -22 154 -81 206 -66 58 -117 70 -300 70 l-153 0 0 -275z"/>
<path d="M8781 12683 c-7 -32 -62 -189 -122 -349 -60 -160 -109 -296 -109
-302 0 -9 69 -12 255 -12 140 0 255 2 255 4 0 2 -49 133 -109 292 -60 159
-117 320 -127 357 -9 37 -20 67 -24 67 -4 0 -12 -26 -19 -57z"/>
<path d="M11951 12683 c-7 -32 -62 -189 -122 -349 -60 -160 -109 -296 -109
-302 0 -9 65 -12 255 -12 140 0 255 2 255 3 0 2 -49 134 -109 294 -61 159
-117 320 -127 356 -9 37 -20 67 -24 67 -4 0 -12 -26 -19 -57z"/>
<path d="M12980 12211 l0 -521 158 0 c194 0 279 12 359 50 122 57 213 176 242
318 16 75 13 246 -4 320 -37 157 -137 271 -283 324 -49 18 -87 22 -264 26
l-208 4 0 -521z"/>
<path d="M10230 10893 c-41 -15 -50 -35 -50 -109 l0 -73 40 -11 c86 -23 156
47 131 132 -16 52 -70 80 -121 61z"/>
<path d="M10558 10779 c-11 -6 -18 -22 -18 -40 0 -40 37 -55 85 -34 29 11 35
19 35 43 0 18 -6 32 -16 36 -24 9 -67 7 -86 -5z"/>
<path d="M11984 10891 c-50 -22 -72 -111 -39 -158 24 -34 76 -47 118 -29 43
17 57 41 57 95 0 71 -72 119 -136 92z"/>
<path d="M12370 10893 c-41 -15 -50 -35 -50 -109 l0 -73 37 -10 c68 -19 127
13 139 77 15 78 -54 141 -126 115z"/>
<path d="M13357 10772 c-24 -26 -21 -49 8 -68 37 -24 105 6 105 47 0 38 -84
54 -113 21z"/>
<path d="M15121 10886 c-57 -31 -67 -107 -22 -158 25 -28 36 -33 71 -32 60 2
95 38 95 100 0 39 -5 50 -33 75 -35 32 -72 37 -111 15z"/>
<path d="M16258 10779 c-11 -6 -18 -22 -18 -40 0 -42 34 -56 83 -35 31 12 37
20 37 44 0 22 -6 31 -22 36 -33 8 -60 7 -80 -5z"/>
<path d="M13686 10868 c-20 -29 -20 -34 4 -58 13 -13 33 -20 60 -20 l40 0 0
50 0 50 -44 0 c-35 0 -48 -5 -60 -22z"/>
<path d="M17336 10874 c-37 -36 -2 -84 61 -84 33 0 33 0 33 50 l0 50 -39 0
c-23 0 -46 -7 -55 -16z"/>
</g>
</svg>
